<?xml version="1.0" encoding="UTF-8" standalone="no"?>
<!DOCTYPE svg PUBLIC "-//W3C//DTD SVG 1.1//EN"
 "http://www.w3.org/Graphics/SVG/1.1/DTD/svg11.dtd">
<!-- Generated by graphviz version 2.38.0 (20140413.2041)
 -->
<!-- Title: Tree Pages: 1 -->
<svg width="1090pt" height="603pt"
 viewBox="0.00 0.00 1090.00 603.00" xmlns="http://www.w3.org/2000/svg" xmlns:xlink="http://www.w3.org/1999/xlink">
<g id="graph0" class="graph" transform="scale(1 1) rotate(0) translate(4 599)">
<title>Tree</title>
<polygon fill="white" stroke="none" points="-4,4 -4,-599 1086,-599 1086,4 -4,4"/>
<!-- 0 -->
<g id="node1" class="node"><title>0</title>
<path fill="cornsilk" stroke="black" d="M796,-595C796,-595 650,-595 650,-595 644,-595 638,-589 638,-583 638,-583 638,-515 638,-515 638,-509 644,-503 650,-503 650,-503 796,-503 796,-503 802,-503 808,-509 808,-515 808,-515 808,-583 808,-583 808,-589 802,-595 796,-595"/>
<text text-anchor="start" x="696" y="-580.8" font-family="Helvetica,sans-Serif" font-size="14.00">node #0</text>
<text text-anchor="start" x="694" y="-566.8" font-family="Helvetica,sans-Serif" font-size="14.00">X</text>
<text text-anchor="start" x="704" y="-566.8" font-family="Helvetica,sans-Serif" baseline-shift="sub" font-size="14.00">5</text>
<text text-anchor="start" x="711" y="-566.8" font-family="Helvetica,sans-Serif" font-size="14.00"> ≤ 0.5</text>
<text text-anchor="start" x="693.5" y="-552.8" font-family="Helvetica,sans-Serif" font-size="14.00">gini = 0.5</text>
<text text-anchor="start" x="662.5" y="-538.8" font-family="Helvetica,sans-Serif" font-size="14.00">samples = 100.0%</text>
<text text-anchor="start" x="669.5" y="-524.8" font-family="Helvetica,sans-Serif" font-size="14.00">value = [0.5, 0.5]</text>
<text text-anchor="start" x="646" y="-510.8" font-family="Helvetica,sans-Serif" font-size="14.00">class = More than $50K</text>
</g>
<!-- 1 -->
<g id="node2" class="node"><title>1</title>
<path fill="cornsilk" stroke="black" d="M612,-467C612,-467 466,-467 466,-467 460,-467 454,-461 454,-455 454,-455 454,-387 454,-387 454,-381 460,-375 466,-375 466,-375 612,-375 612,-375 618,-375 624,-381 624,-387 624,-387 624,-455 624,-455 624,-461 618,-467 612,-467"/>
<text text-anchor="start" x="512" y="-452.8" font-family="Helvetica,sans-Serif" font-size="14.00">node #1</text>
<text text-anchor="start" x="510" y="-438.8" font-family="Helvetica,sans-Serif" font-size="14.00">X</text>
<text text-anchor="start" x="520" y="-438.8" font-family="Helvetica,sans-Serif" baseline-shift="sub" font-size="14.00">2</text>
<text text-anchor="start" x="527" y="-438.8" font-family="Helvetica,sans-Serif" font-size="14.00"> ≤ 9.5</text>
<text text-anchor="start" x="509.5" y="-424.8" font-family="Helvetica,sans-Serif" font-size="14.00">gini = 0.4</text>
<text text-anchor="start" x="483" y="-410.8" font-family="Helvetica,sans-Serif" font-size="14.00">samples = 40.7%</text>
<text text-anchor="start" x="469" y="-396.8" font-family="Helvetica,sans-Serif" font-size="14.00">value = [0.277, 0.723]</text>
<text text-anchor="start" x="462" y="-382.8" font-family="Helvetica,sans-Serif" font-size="14.00">class = More than $50K</text>
</g>
<!-- 0&#45;&gt;1 -->
<g id="edge1" class="edge"><title>0&#45;&gt;1</title>
<path fill="none" stroke="steelblue" d="M657.091,-502.867C642.868,-493.127 627.738,-482.766 613.222,-472.826"/>
<polygon fill="steelblue" stroke="steelblue" points="614.986,-469.792 604.757,-467.03 611.031,-475.567 614.986,-469.792"/>
<text text-anchor="middle" x="609.355" y="-487.903" font-family="Helvetica,sans-Serif" font-size="14.00">True</text>
</g>
<!-- 2 -->
<g id="node11" class="node"><title>2</title>
<path fill="cornsilk" stroke="black" d="M877.5,-467C877.5,-467 754.5,-467 754.5,-467 748.5,-467 742.5,-461 742.5,-455 742.5,-455 742.5,-387 742.5,-387 742.5,-381 748.5,-375 754.5,-375 754.5,-375 877.5,-375 877.5,-375 883.5,-375 889.5,-381 889.5,-387 889.5,-387 889.5,-455 889.5,-455 889.5,-461 883.5,-467 877.5,-467"/>
<text text-anchor="start" x="789" y="-452.8" font-family="Helvetica,sans-Serif" font-size="14.00">node #2</text>
<text text-anchor="start" x="787" y="-438.8" font-family="Helvetica,sans-Serif" font-size="14.00">X</text>
<text text-anchor="start" x="797" y="-438.8" font-family="Helvetica,sans-Serif" baseline-shift="sub" font-size="14.00">5</text>
<text text-anchor="start" x="804" y="-438.8" font-family="Helvetica,sans-Serif" font-size="14.00"> ≤ 4.5</text>
<text text-anchor="start" x="778" y="-424.8" font-family="Helvetica,sans-Serif" font-size="14.00">gini = 0.354</text>
<text text-anchor="start" x="760" y="-410.8" font-family="Helvetica,sans-Serif" font-size="14.00">samples = 59.3%</text>
<text text-anchor="start" x="754" y="-396.8" font-family="Helvetica,sans-Serif" font-size="14.00">value = [0.77, 0.23]</text>
<text text-anchor="start" x="750.5" y="-382.8" font-family="Helvetica,sans-Serif" font-size="14.00">class = $50K or less</text>
</g>
<!-- 0&#45;&gt;2 -->
<g id="edge10" class="edge"><title>0&#45;&gt;2</title>
<path fill="none" stroke="steelblue" d="M756.312,-502.867C762.857,-494.001 769.781,-484.619 776.505,-475.509"/>
<polygon fill="steelblue" stroke="steelblue" points="779.485,-477.366 782.608,-467.241 773.853,-473.209 779.485,-477.366"/>
<text text-anchor="middle" x="786.333" y="-488.262" font-family="Helvetica,sans-Serif" font-size="14.00">False</text>
</g>
<!-- 5 -->
<g id="node3" class="node"><title>5</title>
<path fill="cornsilk" stroke="black" d="M325,-339C325,-339 193,-339 193,-339 187,-339 181,-333 181,-327 181,-327 181,-259 181,-259 181,-253 187,-247 193,-247 193,-247 325,-247 325,-247 331,-247 337,-253 337,-259 337,-259 337,-327 337,-327 337,-333 331,-339 325,-339"/>
<text text-anchor="start" x="232" y="-324.8" font-family="Helvetica,sans-Serif" font-size="14.00">node #5</text>
<text text-anchor="start" x="217.5" y="-310.8" font-family="Helvetica,sans-Serif" font-size="14.00">X</text>
<text text-anchor="start" x="227.5" y="-310.8" font-family="Helvetica,sans-Serif" baseline-shift="sub" font-size="14.00">8</text>
<text text-anchor="start" x="234.5" y="-310.8" font-family="Helvetica,sans-Serif" font-size="14.00"> ≤ 4225.0</text>
<text text-anchor="start" x="221" y="-296.8" font-family="Helvetica,sans-Serif" font-size="14.00">gini = 0.466</text>
<text text-anchor="start" x="203" y="-282.8" font-family="Helvetica,sans-Serif" font-size="14.00">samples = 17.6%</text>
<text text-anchor="start" x="189" y="-268.8" font-family="Helvetica,sans-Serif" font-size="14.00">value = [0.631, 0.369]</text>
<text text-anchor="start" x="193.5" y="-254.8" font-family="Helvetica,sans-Serif" font-size="14.00">class = $50K or less</text>
</g>
<!-- 1&#45;&gt;5 -->
<g id="edge2" class="edge"><title>1&#45;&gt;5</title>
<path fill="none" stroke="steelblue" d="M453.85,-381.683C419.878,-366.395 380.787,-348.804 346.577,-333.41"/>
<polygon fill="steelblue" stroke="steelblue" points="347.622,-330.042 337.066,-329.13 344.749,-336.425 347.622,-330.042"/>
</g>
<!-- 6 -->
<g id="node6" class="node"><title>6</title>
<path fill="cornsilk" stroke="black" d="M612,-339C612,-339 466,-339 466,-339 460,-339 454,-333 454,-327 454,-327 454,-259 454,-259 454,-253 460,-247 466,-247 466,-247 612,-247 612,-247 618,-247 624,-253 624,-259 624,-259 624,-327 624,-327 624,-333 618,-339 612,-339"/>
<text text-anchor="start" x="512" y="-324.8" font-family="Helvetica,sans-Serif" font-size="14.00">node #6</text>
<text text-anchor="start" x="506" y="-310.8" font-family="Helvetica,sans-Serif" font-size="14.00">X</text>
<text text-anchor="start" x="516" y="-310.8" font-family="Helvetica,sans-Serif" baseline-shift="sub" font-size="14.00">2</text>
<text text-anchor="start" x="523" y="-310.8" font-family="Helvetica,sans-Serif" font-size="14.00"> ≤ 12.5</text>
<text text-anchor="start" x="501" y="-296.8" font-family="Helvetica,sans-Serif" font-size="14.00">gini = 0.241</text>
<text text-anchor="start" x="483" y="-282.8" font-family="Helvetica,sans-Serif" font-size="14.00">samples = 23.2%</text>
<text text-anchor="start" x="477" y="-268.8" font-family="Helvetica,sans-Serif" font-size="14.00">value = [0.14, 0.86]</text>
<text text-anchor="start" x="462" y="-254.8" font-family="Helvetica,sans-Serif" font-size="14.00">class = More than $50K</text>
</g>
<!-- 1&#45;&gt;6 -->
<g id="edge5" class="edge"><title>1&#45;&gt;6</title>
<path fill="none" stroke="steelblue" d="M539,-374.867C539,-366.634 539,-357.957 539,-349.465"/>
<polygon fill="steelblue" stroke="steelblue" points="542.5,-349.241 539,-339.241 535.5,-349.241 542.5,-349.241"/>
</g>
<!-- 9 -->
<g id="node4" class="node"><title>9</title>
<path fill="coral" stroke="black" d="M144,-206.5C144,-206.5 12,-206.5 12,-206.5 6,-206.5 0,-200.5 0,-194.5 0,-194.5 0,-135.5 0,-135.5 0,-129.5 6,-123.5 12,-123.5 12,-123.5 144,-123.5 144,-123.5 150,-123.5 156,-129.5 156,-135.5 156,-135.5 156,-194.5 156,-194.5 156,-200.5 150,-206.5 144,-206.5"/>
<text text-anchor="start" x="51" y="-191.3" font-family="Helvetica,sans-Serif" font-size="14.00">node #9</text>
<text text-anchor="start" x="40" y="-176.3" font-family="Helvetica,sans-Serif" font-size="14.00">gini = 0.416</text>
<text text-anchor="start" x="22" y="-161.3" font-family="Helvetica,sans-Serif" font-size="14.00">samples = 16.7%</text>
<text text-anchor="start" x="8" y="-146.3" font-family="Helvetica,sans-Serif" font-size="14.00">value = [0.705, 0.295]</text>
<text text-anchor="start" x="12.5" y="-131.3" font-family="Helvetica,sans-Serif" font-size="14.00">class = $50K or less</text>
</g>
<!-- 5&#45;&gt;9 -->
<g id="edge3" class="edge"><title>5&#45;&gt;9</title>
<path fill="none" stroke="steelblue" d="M194.166,-246.867C178.099,-235.682 160.856,-223.679 144.702,-212.433"/>
<polygon fill="steelblue" stroke="steelblue" points="146.572,-209.471 136.365,-206.63 142.573,-215.216 146.572,-209.471"/>
</g>
<!-- 10 -->
<g id="node5" class="node"><title>10</title>
<path fill="darkturquoise" stroke="black" d="M332,-206.5C332,-206.5 186,-206.5 186,-206.5 180,-206.5 174,-200.5 174,-194.5 174,-194.5 174,-135.5 174,-135.5 174,-129.5 180,-123.5 186,-123.5 186,-123.5 332,-123.5 332,-123.5 338,-123.5 344,-129.5 344,-135.5 344,-135.5 344,-194.5 344,-194.5 344,-200.5 338,-206.5 332,-206.5"/>
<text text-anchor="start" x="228" y="-191.3" font-family="Helvetica,sans-Serif" font-size="14.00">node #10</text>
<text text-anchor="start" x="221" y="-176.3" font-family="Helvetica,sans-Serif" font-size="14.00">gini = 0.103</text>
<text text-anchor="start" x="207" y="-161.3" font-family="Helvetica,sans-Serif" font-size="14.00">samples = 0.8%</text>
<text text-anchor="start" x="189" y="-146.3" font-family="Helvetica,sans-Serif" font-size="14.00">value = [0.055, 0.945]</text>
<text text-anchor="start" x="182" y="-131.3" font-family="Helvetica,sans-Serif" font-size="14.00">class = More than $50K</text>
</g>
<!-- 5&#45;&gt;10 -->
<g id="edge4" class="edge"><title>5&#45;&gt;10</title>
<path fill="none" stroke="steelblue" d="M259,-246.867C259,-237.119 259,-226.749 259,-216.801"/>
<polygon fill="steelblue" stroke="steelblue" points="262.5,-216.63 259,-206.63 255.5,-216.63 262.5,-216.63"/>
</g>
<!-- 11 -->
<g id="node7" class="node"><title>11</title>
<path fill="cornsilk" stroke="black" d="M520,-211C520,-211 374,-211 374,-211 368,-211 362,-205 362,-199 362,-199 362,-131 362,-131 362,-125 368,-119 374,-119 374,-119 520,-119 520,-119 526,-119 532,-125 532,-131 532,-131 532,-199 532,-199 532,-205 526,-211 520,-211"/>
<text text-anchor="start" x="416" y="-196.8" font-family="Helvetica,sans-Serif" font-size="14.00">node #11</text>
<text text-anchor="start" x="414" y="-182.8" font-family="Helvetica,sans-Serif" font-size="14.00">X</text>
<text text-anchor="start" x="424" y="-182.8" font-family="Helvetica,sans-Serif" baseline-shift="sub" font-size="14.00">0</text>
<text text-anchor="start" x="431" y="-182.8" font-family="Helvetica,sans-Serif" font-size="14.00"> ≤ 35.5</text>
<text text-anchor="start" x="409" y="-168.8" font-family="Helvetica,sans-Serif" font-size="14.00">gini = 0.419</text>
<text text-anchor="start" x="391" y="-154.8" font-family="Helvetica,sans-Serif" font-size="14.00">samples = 10.8%</text>
<text text-anchor="start" x="377" y="-140.8" font-family="Helvetica,sans-Serif" font-size="14.00">value = [0.299, 0.701]</text>
<text text-anchor="start" x="370" y="-126.8" font-family="Helvetica,sans-Serif" font-size="14.00">class = More than $50K</text>
</g>
<!-- 6&#45;&gt;11 -->
<g id="edge6" class="edge"><title>6&#45;&gt;11</title>
<path fill="none" stroke="steelblue" d="M506.046,-246.867C499.572,-238.001 492.722,-228.619 486.07,-219.509"/>
<polygon fill="steelblue" stroke="steelblue" points="488.757,-217.254 480.033,-211.241 483.104,-221.382 488.757,-217.254"/>
</g>
<!-- 12 -->
<g id="node10" class="node"><title>12</title>
<path fill="darkturquoise" stroke="black" d="M708,-206.5C708,-206.5 562,-206.5 562,-206.5 556,-206.5 550,-200.5 550,-194.5 550,-194.5 550,-135.5 550,-135.5 550,-129.5 556,-123.5 562,-123.5 562,-123.5 708,-123.5 708,-123.5 714,-123.5 720,-129.5 720,-135.5 720,-135.5 720,-194.5 720,-194.5 720,-200.5 714,-206.5 708,-206.5"/>
<text text-anchor="start" x="604" y="-191.3" font-family="Helvetica,sans-Serif" font-size="14.00">node #12</text>
<text text-anchor="start" x="605.5" y="-176.3" font-family="Helvetica,sans-Serif" font-size="14.00">gini = 0.1</text>
<text text-anchor="start" x="579" y="-161.3" font-family="Helvetica,sans-Serif" font-size="14.00">samples = 12.4%</text>
<text text-anchor="start" x="565" y="-146.3" font-family="Helvetica,sans-Serif" font-size="14.00">value = [0.053, 0.947]</text>
<text text-anchor="start" x="558" y="-131.3" font-family="Helvetica,sans-Serif" font-size="14.00">class = More than $50K</text>
</g>
<!-- 6&#45;&gt;12 -->
<g id="edge9" class="edge"><title>6&#45;&gt;12</title>
<path fill="none" stroke="steelblue" d="M573.387,-246.867C581.361,-236.401 589.882,-225.217 597.965,-214.609"/>
<polygon fill="steelblue" stroke="steelblue" points="600.767,-216.705 604.044,-206.63 595.199,-212.463 600.767,-216.705"/>
</g>
<!-- 13 -->
<g id="node8" class="node"><title>13</title>
<path fill="coral" stroke="black" d="M422,-83C422,-83 290,-83 290,-83 284,-83 278,-77 278,-71 278,-71 278,-12 278,-12 278,-6 284,-0 290,-0 290,-0 422,-0 422,-0 428,-0 434,-6 434,-12 434,-12 434,-71 434,-71 434,-77 428,-83 422,-83"/>
<text text-anchor="start" x="325" y="-67.8" font-family="Helvetica,sans-Serif" font-size="14.00">node #13</text>
<text text-anchor="start" x="318" y="-52.8" font-family="Helvetica,sans-Serif" font-size="14.00">gini = 0.437</text>
<text text-anchor="start" x="304" y="-37.8" font-family="Helvetica,sans-Serif" font-size="14.00">samples = 3.3%</text>
<text text-anchor="start" x="286" y="-22.8" font-family="Helvetica,sans-Serif" font-size="14.00">value = [0.678, 0.322]</text>
<text text-anchor="start" x="290.5" y="-7.8" font-family="Helvetica,sans-Serif" font-size="14.00">class = $50K or less</text>
</g>
<!-- 11&#45;&gt;13 -->
<g id="edge7" class="edge"><title>11&#45;&gt;13</title>
<path fill="none" stroke="steelblue" d="M413.115,-118.758C406.46,-109.873 399.451,-100.514 392.709,-91.5123"/>
<polygon fill="steelblue" stroke="steelblue" points="395.406,-89.2756 386.61,-83.3698 389.804,-93.4719 395.406,-89.2756"/>
</g>
<!-- 14 -->
<g id="node9" class="node"><title>14</title>
<path fill="darkturquoise" stroke="black" d="M610,-83C610,-83 464,-83 464,-83 458,-83 452,-77 452,-71 452,-71 452,-12 452,-12 452,-6 458,-0 464,-0 464,-0 610,-0 610,-0 616,-0 622,-6 622,-12 622,-12 622,-71 622,-71 622,-77 616,-83 610,-83"/>
<text text-anchor="start" x="506" y="-67.8" font-family="Helvetica,sans-Serif" font-size="14.00">node #14</text>
<text text-anchor="start" x="499" y="-52.8" font-family="Helvetica,sans-Serif" font-size="14.00">gini = 0.328</text>
<text text-anchor="start" x="485" y="-37.8" font-family="Helvetica,sans-Serif" font-size="14.00">samples = 7.5%</text>
<text text-anchor="start" x="467" y="-22.8" font-family="Helvetica,sans-Serif" font-size="14.00">value = [0.207, 0.793]</text>
<text text-anchor="start" x="460" y="-7.8" font-family="Helvetica,sans-Serif" font-size="14.00">class = More than $50K</text>
</g>
<!-- 11&#45;&gt;14 -->
<g id="edge8" class="edge"><title>11&#45;&gt;14</title>
<path fill="none" stroke="steelblue" d="M480.513,-118.758C487.094,-109.873 494.027,-100.514 500.695,-91.5123"/>
<polygon fill="steelblue" stroke="steelblue" points="503.586,-93.4887 506.726,-83.3698 497.961,-89.322 503.586,-93.4887"/>
</g>
<!-- 3 -->
<g id="node12" class="node"><title>3</title>
<path fill="cornsilk" stroke="black" d="M882,-339C882,-339 750,-339 750,-339 744,-339 738,-333 738,-327 738,-327 738,-259 738,-259 738,-253 744,-247 750,-247 750,-247 882,-247 882,-247 888,-247 894,-253 894,-259 894,-259 894,-327 894,-327 894,-333 888,-339 882,-339"/>
<text text-anchor="start" x="789" y="-324.8" font-family="Helvetica,sans-Serif" font-size="14.00">node #3</text>
<text text-anchor="start" x="774.5" y="-310.8" font-family="Helvetica,sans-Serif" font-size="14.00">X</text>
<text text-anchor="start" x="784.5" y="-310.8" font-family="Helvetica,sans-Serif" baseline-shift="sub" font-size="14.00">8</text>
<text text-anchor="start" x="791.5" y="-310.8" font-family="Helvetica,sans-Serif" font-size="14.00"> ≤ 4668.5</text>
<text text-anchor="start" x="778" y="-296.8" font-family="Helvetica,sans-Serif" font-size="14.00">gini = 0.215</text>
<text text-anchor="start" x="760" y="-282.8" font-family="Helvetica,sans-Serif" font-size="14.00">samples = 54.5%</text>
<text text-anchor="start" x="746" y="-268.8" font-family="Helvetica,sans-Serif" font-size="14.00">value = [0.878, 0.122]</text>
<text text-anchor="start" x="750.5" y="-254.8" font-family="Helvetica,sans-Serif" font-size="14.00">class = $50K or less</text>
</g>
<!-- 2&#45;&gt;3 -->
<g id="edge11" class="edge"><title>2&#45;&gt;3</title>
<path fill="none" stroke="steelblue" d="M816,-374.867C816,-366.634 816,-357.957 816,-349.465"/>
<polygon fill="steelblue" stroke="steelblue" points="819.5,-349.241 816,-339.241 812.5,-349.241 819.5,-349.241"/>
</g>
<!-- 4 -->
<g id="node15" class="node"><title>4</title>
<path fill="darkturquoise" stroke="black" d="M1070,-334.5C1070,-334.5 924,-334.5 924,-334.5 918,-334.5 912,-328.5 912,-322.5 912,-322.5 912,-263.5 912,-263.5 912,-257.5 918,-251.5 924,-251.5 924,-251.5 1070,-251.5 1070,-251.5 1076,-251.5 1082,-257.5 1082,-263.5 1082,-263.5 1082,-322.5 1082,-322.5 1082,-328.5 1076,-334.5 1070,-334.5"/>
<text text-anchor="start" x="970" y="-319.3" font-family="Helvetica,sans-Serif" font-size="14.00">node #4</text>
<text text-anchor="start" x="959" y="-304.3" font-family="Helvetica,sans-Serif" font-size="14.00">gini = 0.325</text>
<text text-anchor="start" x="945" y="-289.3" font-family="Helvetica,sans-Serif" font-size="14.00">samples = 4.7%</text>
<text text-anchor="start" x="927" y="-274.3" font-family="Helvetica,sans-Serif" font-size="14.00">value = [0.205, 0.795]</text>
<text text-anchor="start" x="920" y="-259.3" font-family="Helvetica,sans-Serif" font-size="14.00">class = More than $50K</text>
</g>
<!-- 2&#45;&gt;4 -->
<g id="edge14" class="edge"><title>2&#45;&gt;4</title>
<path fill="none" stroke="steelblue" d="M880.834,-374.867C896.901,-363.682 914.144,-351.679 930.298,-340.433"/>
<polygon fill="steelblue" stroke="steelblue" points="932.427,-343.216 938.635,-334.63 928.428,-337.471 932.427,-343.216"/>
</g>
<!-- 7 -->
<g id="node13" class="node"><title>7</title>
<path fill="coral" stroke="black" d="M882,-206.5C882,-206.5 750,-206.5 750,-206.5 744,-206.5 738,-200.5 738,-194.5 738,-194.5 738,-135.5 738,-135.5 738,-129.5 744,-123.5 750,-123.5 750,-123.5 882,-123.5 882,-123.5 888,-123.5 894,-129.5 894,-135.5 894,-135.5 894,-194.5 894,-194.5 894,-200.5 888,-206.5 882,-206.5"/>
<text text-anchor="start" x="789" y="-191.3" font-family="Helvetica,sans-Serif" font-size="14.00">node #7</text>
<text text-anchor="start" x="778" y="-176.3" font-family="Helvetica,sans-Serif" font-size="14.00">gini = 0.117</text>
<text text-anchor="start" x="760" y="-161.3" font-family="Helvetica,sans-Serif" font-size="14.00">samples = 53.2%</text>
<text text-anchor="start" x="746" y="-146.3" font-family="Helvetica,sans-Serif" font-size="14.00">value = [0.938, 0.062]</text>
<text text-anchor="start" x="750.5" y="-131.3" font-family="Helvetica,sans-Serif" font-size="14.00">class = $50K or less</text>
</g>
<!-- 3&#45;&gt;7 -->
<g id="edge12" class="edge"><title>3&#45;&gt;7</title>
<path fill="none" stroke="steelblue" d="M816,-246.867C816,-237.119 816,-226.749 816,-216.801"/>
<polygon fill="steelblue" stroke="steelblue" points="819.5,-216.63 816,-206.63 812.5,-216.63 819.5,-216.63"/>
</g>
<!-- 8 -->
<g id="node14" class="node"><title>8</title>
<path fill="darkturquoise" stroke="black" d="M1070,-206.5C1070,-206.5 924,-206.5 924,-206.5 918,-206.5 912,-200.5 912,-194.5 912,-194.5 912,-135.5 912,-135.5 912,-129.5 918,-123.5 924,-123.5 924,-123.5 1070,-123.5 1070,-123.5 1076,-123.5 1082,-129.5 1082,-135.5 1082,-135.5 1082,-194.5 1082,-194.5 1082,-200.5 1076,-206.5 1070,-206.5"/>
<text text-anchor="start" x="970" y="-191.3" font-family="Helvetica,sans-Serif" font-size="14.00">node #8</text>
<text text-anchor="start" x="959" y="-176.3" font-family="Helvetica,sans-Serif" font-size="14.00">gini = 0.113</text>
<text text-anchor="start" x="945" y="-161.3" font-family="Helvetica,sans-Serif" font-size="14.00">samples = 1.3%</text>
<text text-anchor="start" x="935" y="-146.3" font-family="Helvetica,sans-Serif" font-size="14.00">value = [0.06, 0.94]</text>
<text text-anchor="start" x="920" y="-131.3" font-family="Helvetica,sans-Serif" font-size="14.00">class = More than $50K</text>
</g>
<!-- 3&#45;&gt;8 -->
<g id="edge13" class="edge"><title>3&#45;&gt;8</title>
<path fill="none" stroke="steelblue" d="M880.834,-246.867C896.901,-235.682 914.144,-223.679 930.298,-212.433"/>
<polygon fill="steelblue" stroke="steelblue" points="932.427,-215.216 938.635,-206.63 928.428,-209.471 932.427,-215.216"/>
</g>
</g>
</svg>
